<svg xmlns="http://www.w3.org/2000/svg" viewBox="0 0 192 192">
  <defs>
    <linearGradient id="grad" x1="0%" y1="0%" x2="100%" y2="100%">
      <stop offset="0%" style="stop-color:#10b981"/>
      <stop offset="100%" style="stop-color:#059669"/>
    </linearGradient>
  </defs>
  <rect width="192" height="192" rx="40" fill="url(#grad)"/>
  <g transform="translate(56, 46)" fill="none" stroke="white" stroke-width="6" stroke-linecap="round" stroke-linejoin="round">
    <path d="M20 100h40"/>
    <path d="M40 100c22-10 3.2-25.6 12-40"/>
    <path d="M38 37.6c4.4 3.2 7.2 8.8 9.2 14.8-8 1.6-14 1.6-19.2-1.2-4.8-2.4-9.2-7.6-12-16.8 11.2-2 17.6 0 22 3.2z"/>
    <path d="M56.4 24a28 28 0 0 0-4.4 16c7.6-.4 13.2-2.4 17.2-5.6 4-4 6.4-9.2 6.8-18.4-10.8.4-16 4-19.6 8z"/>
  </g>
</svg>
