<svg width="192" height="192" viewBox="0 0 690 690" fill="none" xmlns="http://www.w3.org/2000/svg">
<rect width="690" height="690" fill="white"/>
<path d="M332.667 0.835427C322.133 2.43543 312.933 5.50209 304 10.4354C298.267 13.5021 264.533 46.5688 154.933 155.902C13.8667 296.702 13.2 297.369 8 308.035C1.86667 320.969 0 329.235 0 344.435C0 372.435 9.73333 390.035 43.8667 424.035L64 444.035V391.369V338.702L203.333 199.369C280 122.702 343.2 60.0354 343.733 60.0354C344.4 60.0354 370.133 84.5688 401.067 114.702L457.333 169.235V259.369C457.333 308.835 457.333 350.302 457.333 351.369C457.333 352.435 470 340.702 485.333 325.369L513.333 297.369V214.702V132.035L459.733 78.3021C405.2 23.9021 398.267 17.5021 385.333 10.3021C370.4 2.03543 349.467 -1.83124 332.667 0.835427Z" fill="black"/>
<path d="M301.6 139.77L260 181.37V359.503V537.636L271.6 548.17C278 553.903 294.667 569.503 308.667 582.57C322.533 595.77 336.267 608.57 338.933 611.103L343.867 615.77L388 572.036L432 528.17L431.867 354.836L431.733 181.37L389.333 140.036C365.867 117.236 346 98.5697 345.067 98.4364C344.133 98.303 324.533 116.836 301.6 139.77ZM378.667 160.17L410.667 191.77V234.17C410.667 257.636 410.267 276.703 409.867 276.703C409.467 276.703 394.8 262.836 377.333 246.036C359.867 229.103 345.067 215.37 344.4 215.37C343.867 215.503 329.6 228.97 312.667 245.37L282 275.103L281.6 232.97L281.333 190.703L312.933 159.77C330.4 142.703 345.067 128.836 345.6 128.703C346.133 128.703 361.067 142.836 378.667 160.17ZM355.6 254.036C360.533 258.836 375.067 272.57 387.733 284.57L410.667 306.303V415.236V524.17L377.2 556.57L343.733 588.97L333.6 579.103C327.867 573.77 313.867 560.436 302.4 549.503L281.333 529.636V417.636V305.503L312.4 275.236C329.333 258.436 344 244.97 344.933 245.103C345.867 245.236 350.667 249.236 355.6 254.036Z" fill="black"/>
<path d="M538.133 231.769L539.066 307.503L498.133 347.769L457.199 388.036L457.599 435.636L457.999 483.369L529.066 412.436L599.999 341.503V280.169V218.836L568.666 187.369L537.199 156.036L538.133 231.769Z" fill="black"/>
<path d="M161.067 276.302L88 349.369V408.702V468.035L118 498.035L148 528.035V456.035V384.035L191.333 340.702L234.667 297.369L234.4 250.302L234 203.369L161.067 276.302Z" fill="black"/>
<path d="M624.667 247.369C624.133 249.102 624.133 273.102 624.667 300.569L625.6 350.702L480.8 495.369C401.067 574.969 335.067 640.036 334 640.036C332.933 640.036 314.267 622.969 292.4 602.036C270.533 581.102 248.667 560.169 243.733 555.502L234.667 546.969V439.502V332.036L204 362.702L173.467 393.369L172.933 472.969L172.533 552.569L232.533 612.436C295.2 674.836 300 678.969 316.667 684.702C320.8 686.169 329.067 688.036 335.067 688.836C356.267 691.769 381.867 684.169 401.6 669.236C410.8 662.302 448.8 624.969 582.8 491.369C677.333 396.969 678.4 395.902 686.4 373.769C689.6 364.969 690 362.302 689.867 346.036C689.867 325.502 688.4 319.902 678.533 302.436C673.867 294.169 667.733 287.102 649.2 268.169C627.467 246.036 625.6 244.436 624.667 247.369Z" fill="black"/>
</svg>
