<svg xmlns="http://www.w3.org/2000/svg" viewBox="0 0 512 512">
  <defs>
    <linearGradient id="grad" x1="0%" y1="0%" x2="100%" y2="100%">
      <stop offset="0%" style="stop-color:#10b981"/>
      <stop offset="100%" style="stop-color:#059669"/>
    </linearGradient>
  </defs>
  <rect width="512" height="512" rx="100" fill="url(#grad)"/>
  <g transform="translate(136, 106)" fill="none" stroke="white" stroke-width="16" stroke-linecap="round" stroke-linejoin="round">
    <path d="M60 300h120"/>
    <path d="M120 300c66-30 9.6-76.8 36-120"/>
    <path d="M114 112.8c13.2 9.6 21.6 26.4 27.6 44.4-24 4.8-42 4.8-57.6-3.6-14.4-7.2-27.6-22.8-36-50.4 33.6-6 52.8 0 66 9.6z"/>
    <path d="M169.2 72a84 84 0 0 0-13.2 48c22.8-1.2 39.6-7.2 51.6-16.8 12-12 19.2-27.6 20.4-55.2-32.4 1.2-48 12-58.8 24z"/>
  </g>
</svg>
